<svg xmlns="http://www.w3.org/2000/svg" viewBox="0 0 70 70">
  <defs>
    <style>
      .a {
        fill: #00953f;
        stroke: #00953f;
        stroke-miterlimit: 22.93;
        stroke-width: 0.57px;
      }

      .a, .b {
        fill-rule: evenodd;
      }

      .b {
        fill: #009de2;
      }
    </style>
  </defs>
  <title>agat-logo_flower</title>
  <g>
    <path class="a" d="M38.18,30.32C43.18,3.1,6.25,17.66,25,33.45c-.34.22.33-.22.19-.18C.77,41.66,28.65,67.44,35.26,43,55.82,59.77,59.53,21.13,38.18,30.32Z"/>
    <path class="b" d="M37.26,51.11c-7.81,13-25.92,7.93-26.62-6.38L0,44.26c2.93,33.19,42.15,32.13,48.28,7.2Z"/>
    <path class="b" d="M16.5,32.14c-7-13.43,6.77-26.25,19.34-19.37l6-8.83C12-10.9-7.61,23.11,10.45,41.35Z"/>
    <path class="b" d="M45.07,22.49C60.16,23.58,63.88,42,51.44,49.12l4.4,9.7C84.1,41.16,65.39,6.68,40.39,12.51Z"/>
  </g>
</svg>
