<svg id="Layer_1" data-name="Layer 1" xmlns="http://www.w3.org/2000/svg" viewBox="0 0 107 40">
  <defs>
    <style>
      .cls-1 {
        fill: #00953f;
      }

      .cls-2 {
        fill: #009de2;
      }
    </style>
  </defs>
  <title>agat-logo_color</title>
  <g>
    <path class="cls-1" d="M22.07,17.31C25,1.62,3.67,10,14.49,19.11c-.19.13.19-.13.12-.11-14.12,4.84,2,19.69,5.78,5.62C32.22,34.28,34.37,12,22.07,17.31Z"/>
    <path class="cls-2" d="M21.53,29.29A8.15,8.15,0,0,1,6.23,25.6L.06,25.33c1.69,19.12,24.29,18.51,27.82,4.15Z"/>
    <path class="cls-2" d="M9.57,18.36A8.15,8.15,0,0,1,20.72,7.19L24.15,2.1C6.95-6.45-4.32,13.15,6.09,23.66Z"/>
    <path class="cls-2" d="M26,12.79a8.15,8.15,0,0,1,3.67,15.3l2.54,5.59c16.27-10.14,5.5-30-8.91-26.62Z"/>
    <path class="cls-2" d="M56.82,24.71,58,27.63h5.79L56.5,8H50.28L43.11,27.69H48.9l1.18-2.92ZM56,20H51.15l2.35-6.32Z"/>
    <path class="cls-2" d="M88.08,24.77l1.18,2.92h5.79L87.77,8.08H81.54L74.38,27.73h5.79l1.18-2.92Zm-.79-4.71H82.41l2.35-6.32Z"/>
    <polygon class="cls-2" points="65.03 7.99 65.08 27.69 70.74 27.73 70.77 13.01 77.11 13.01 77.08 7.99 65.03 7.99"/>
    <polygon class="cls-2" points="93.25 8.15 106.94 8.18 106.94 13.19 102.94 13.19 102.9 27.91 97.28 27.88 97.25 13.18 93.25 13.18 93.25 8.15"/>
    <path class="cls-2" d="M77.07,30.59H78v2.54a1.89,1.89,0,0,1,.61-.48,1.67,1.67,0,0,1,.72-.15,1.74,1.74,0,0,1,1.49.79,3.37,3.37,0,0,1,.55,2,3.18,3.18,0,0,1-.59,2,1.8,1.8,0,0,1-1.48.76,2,2,0,0,1-.59-.09,2,2,0,0,1-.72-.49V40h-.91V37.43a1.84,1.84,0,0,1-.6.44,1.72,1.72,0,0,1-.71.14,1.87,1.87,0,0,1-1.46-.73,3.13,3.13,0,0,1-.62-2.09,3.2,3.2,0,0,1,.56-1.93,1.78,1.78,0,0,1,1.52-.78,1.65,1.65,0,0,1,.73.15,1.69,1.69,0,0,1,.58.48ZM78,35.3a2.74,2.74,0,0,0,.33,1.61,1,1,0,0,0,.82.41,1.18,1.18,0,0,0,.93-.51,2.59,2.59,0,0,0,.39-1.58,2.58,2.58,0,0,0-.35-1.51,1.08,1.08,0,0,0-.92-.49,1,1,0,0,0-.89.52A3.11,3.11,0,0,0,78,35.3Zm-3.37-.11A2.71,2.71,0,0,0,75,36.81a1.18,1.18,0,0,0,.93.49,1,1,0,0,0,.87-.49,3,3,0,0,0,.31-1.51,3.2,3.2,0,0,0-.31-1.58,1,1,0,0,0-.92-.52,1.06,1.06,0,0,0-.91.51,2.54,2.54,0,0,0-.35,1.44Zm8.91.11a2.73,2.73,0,0,1,.82-2.18A2.47,2.47,0,0,1,86,32.54a2.35,2.35,0,0,1,1.79.72,2.72,2.72,0,0,1,.69,2,3.53,3.53,0,0,1-.31,1.61,2.18,2.18,0,0,1-.89.91,2.6,2.6,0,0,1-1.28.33,2.35,2.35,0,0,1-1.8-.72A2.85,2.85,0,0,1,83.51,35.3Zm.92,0a2.25,2.25,0,0,0,.45,1.52,1.49,1.49,0,0,0,2.11.13l.13-.13a2.35,2.35,0,0,0,.45-1.55A2.18,2.18,0,0,0,87,33.72a1.49,1.49,0,0,0-2.11-.13l-.13.13a2.24,2.24,0,0,0-.41,1.58Zm6.51-2.66h.91v2.21h2.49V32.59h.91V37.9h-.91V35.55H91.8V37.9H90.9V32.59Zm7.77,0h3.64v4.58h.58v2.24h-.74V37.9H98v1.51h-.74V37.17h.47a7.88,7.88,0,0,0,.91-4.58Zm.74.74a8.78,8.78,0,0,1-.8,3.82h2.86V33.34Z"/>
  </g>
</svg>
