<svg id="Layer_1" data-name="Layer 1" xmlns="http://www.w3.org/2000/svg" viewBox="0 0 300 300"><defs><style>.cls-1{fill:#656565;}</style></defs><title>Artboard 1</title><g id="SvgjsG2284"><path class="cls-1" d="M28.86,209a10.39,10.39,0,0,1-1,4.85,8.71,8.71,0,0,1-2.78,3.2A11.54,11.54,0,0,1,21,218.8a22.43,22.43,0,0,1-4.95.53,19.91,19.91,0,0,1-4.85-.52,13.88,13.88,0,0,1-3.63-1.41,10.87,10.87,0,0,1-2.65-2.07A14.14,14.14,0,0,1,3,212.78l4.54-3.28a15.09,15.09,0,0,0,1.37,1.81,8.2,8.2,0,0,0,1.75,1.5,8.62,8.62,0,0,0,2.34,1,11.46,11.46,0,0,0,3.09.38,13.62,13.62,0,0,0,2.56-.24,7.08,7.08,0,0,0,2.21-.82,4.65,4.65,0,0,0,1.55-1.47,4.3,4.3,0,0,0,.57-2.29,3.89,3.89,0,0,0-.55-2.14,4.76,4.76,0,0,0-1.5-1.46,8.75,8.75,0,0,0-2.2-1c-.84-.27-1.73-.53-2.69-.78q-2.63-.66-4.87-1.37a15.51,15.51,0,0,1-3.91-1.79,8,8,0,0,1-2.6-2.77,8.69,8.69,0,0,1-.95-4.3,10.79,10.79,0,0,1,.78-4.19,8.67,8.67,0,0,1,2.33-3.19,10.62,10.62,0,0,1,3.82-2,17.8,17.8,0,0,1,5.25-.7,18.81,18.81,0,0,1,4.06.4,13.53,13.53,0,0,1,3.35,1.19,11.17,11.17,0,0,1,2.67,1.93,13.32,13.32,0,0,1,2.09,2.6l-4.49,3.34a9.43,9.43,0,0,0-3.2-3.26,8.78,8.78,0,0,0-4.53-1.09A7.87,7.87,0,0,0,11.23,190a3.87,3.87,0,0,0-1.69,3.37,3.4,3.4,0,0,0,.45,1.81,3.85,3.85,0,0,0,1.41,1.28,11.54,11.54,0,0,0,2.4,1q1.44.42,3.42.9c1,.24,2,.5,3,.78a26.73,26.73,0,0,1,2.74,1,13.44,13.44,0,0,1,2.39,1.32,8,8,0,0,1,1.87,1.8,8.76,8.76,0,0,1,1.22,2.49A11.32,11.32,0,0,1,28.86,209Zm21.87,9.62-7.58-11.2-2.63,2.9v8.3H35.21v-36.8h5.31v22l9.61-11.15h6.29l-10,11.15L57,218.62Zm16.81-32.75a2.76,2.76,0,0,1-.78,2.26,3.8,3.8,0,0,1-2.41.63,3.29,3.29,0,0,1-2.46-.74,3.11,3.11,0,0,1-.68-2.15,3,3,0,0,1,.72-2.22,3.47,3.47,0,0,1,2.42-.68,3.61,3.61,0,0,1,2.44.67,2.87,2.87,0,0,1,.75,2.23m-5.81,32.75V192.69h5.32v25.93Zm13.2,0v-36.8h5.31v36.8Zm13.31,0v-36.8h5.32v36.8Zm39.75,0a17.39,17.39,0,0,1-2.51.55,17.92,17.92,0,0,1-2.66.21,11.48,11.48,0,0,1-3.61-.5,5.71,5.71,0,0,1-2.46-1.57,6.41,6.41,0,0,1-1.39-2.67,14.7,14.7,0,0,1-.44-3.86V197h-3.5v-4.32h3.5v-7.22h5.31v7.22h6.27V197h-6.27v13a15.1,15.1,0,0,0,.16,2.33,4.33,4.33,0,0,0,.53,1.54,2.19,2.19,0,0,0,1,.87,3.66,3.66,0,0,0,1.48.27,9.38,9.38,0,0,0,1.83-.2,11.93,11.93,0,0,0,1.67-.51Zm19.32-20.72a5.34,5.34,0,0,0-1-.26,6.16,6.16,0,0,0-1.3-.13,6.92,6.92,0,0,0-2.05.3,8.58,8.58,0,0,0-1.84.79,11.94,11.94,0,0,0-1.7,1.2c-.54.46-1.07.95-1.6,1.47v17.35h-5.32V192.69h5.32v3.95c.56-.59,1.14-1.15,1.73-1.68a13.06,13.06,0,0,1,1.87-1.38,10.45,10.45,0,0,1,2-.94,7.15,7.15,0,0,1,2.24-.34,8,8,0,0,1,1.57.13,4,4,0,0,1,1.13.39Zm20.54,20.72v-2.94a18.62,18.62,0,0,1-3.86,2.66,9.68,9.68,0,0,1-4.44,1,9.88,9.88,0,0,1-3.52-.59,7,7,0,0,1-2.57-1.67,7.41,7.41,0,0,1-1.58-2.55,9.33,9.33,0,0,1-.54-3.24,8.82,8.82,0,0,1,.78-3.93,6.87,6.87,0,0,1,2.15-2.58,9.8,9.8,0,0,1,3.26-1.51,25.76,25.76,0,0,1,4.14-.73l5.94-.58v-1.21a5.13,5.13,0,0,0-.39-2.13,3.41,3.41,0,0,0-1.11-1.37,4.5,4.5,0,0,0-1.81-.73,12.74,12.74,0,0,0-2.43-.22,9.19,9.19,0,0,0-2.29.26,7.09,7.09,0,0,0-1.69.63,4.92,4.92,0,0,0-1.19.91,4.82,4.82,0,0,0-.73,1l-4.21-2.7a7.34,7.34,0,0,1,1.3-1.65,8.61,8.61,0,0,1,2.06-1.43,13.34,13.34,0,0,1,2.93-1A17.62,17.62,0,0,1,162,192a23.13,23.13,0,0,1,4.77.44,8.76,8.76,0,0,1,3.43,1.49,6.34,6.34,0,0,1,2.06,2.78,11.8,11.8,0,0,1,.69,4.33v17.63h-5.07m-.24-12.6-3.71.34a20.16,20.16,0,0,0-3,.46,7.8,7.8,0,0,0-2.22.9,3.84,3.84,0,0,0-1.36,1.42,4.2,4.2,0,0,0-.47,2.09,3.49,3.49,0,0,0,1.08,2.9A4.84,4.84,0,0,0,161,215a5.2,5.2,0,0,0,1.59-.27,10.88,10.88,0,0,0,1.68-.72,15.76,15.76,0,0,0,1.71-1.05c.56-.4,1.12-.83,1.67-1.26Zm33.33,8.75a10.77,10.77,0,0,1-1.58,1.91,8.37,8.37,0,0,1-2.06,1.45,10.23,10.23,0,0,1-2.67.93,16.36,16.36,0,0,1-3.35.32,14.22,14.22,0,0,1-5.56-1,9.68,9.68,0,0,1-3.76-2.8,11.41,11.41,0,0,1-2.12-4.3,21.19,21.19,0,0,1-.67-5.54,21.6,21.6,0,0,1,.7-5.72,11.71,11.71,0,0,1,2.17-4.35,9.63,9.63,0,0,1,3.7-2.77,15.08,15.08,0,0,1,11,.16,8.62,8.62,0,0,1,3.81,3.46l-4.15,2.8a6.09,6.09,0,0,0-2.13-2,6.47,6.47,0,0,0-3.19-.7,5.63,5.63,0,0,0-4.91,2.21q-1.56,2.2-1.56,6.95a19.37,19.37,0,0,0,.34,3.86,7.68,7.68,0,0,0,1.13,2.82,4.94,4.94,0,0,0,2.07,1.73,7.31,7.31,0,0,0,3.13.6,9,9,0,0,0,1.61-.14,6,6,0,0,0,1.43-.46,5.47,5.47,0,0,0,1.26-.85,8.18,8.18,0,0,0,1.16-1.28Zm20.89,3.85-7.6-11.2-2.61,2.9v8.3H206.3v-36.8h5.32v22l9.61-11.15h6.28l-10,11.15,10.59,14.78Zm16.8-32.75a2.76,2.76,0,0,1-.78,2.26,3.8,3.8,0,0,1-2.41.63A3.26,3.26,0,0,1,233,188a3.11,3.11,0,0,1-.68-2.15,3,3,0,0,1,.71-2.22,3.5,3.5,0,0,1,2.42-.68,3.64,3.64,0,0,1,2.45.67,2.91,2.91,0,0,1,.74,2.23m-5.8,32.75V192.69h5.31v25.93Zm29.58,0V203.84c0-1.29-.05-2.38-.13-3.28a6.17,6.17,0,0,0-.53-2.19,2.51,2.51,0,0,0-1.15-1.21,4.52,4.52,0,0,0-2-.37,5.13,5.13,0,0,0-1.74.33A9.87,9.87,0,0,0,255,198a19.4,19.4,0,0,0-1.92,1.28c-.64.49-1.26,1-1.85,1.52v17.83h-5.32V192.69h5.32v3.61a18.11,18.11,0,0,1,1.88-1.64,15.58,15.58,0,0,1,2.19-1.39,12.7,12.7,0,0,1,2.36-1,8.74,8.74,0,0,1,2.47-.36,9.62,9.62,0,0,1,3.63.61,5.61,5.61,0,0,1,2.34,1.83,7.45,7.45,0,0,1,1.24,2.93,19.08,19.08,0,0,1,.37,4v17.31Zm34.62-.5a13.42,13.42,0,0,1-.69,4.52,7.27,7.27,0,0,1-2.18,3.2,9.38,9.38,0,0,1-3.8,1.9,21.07,21.07,0,0,1-5.57.64,22.93,22.93,0,0,1-5.44-.61,16.28,16.28,0,0,1-4.39-1.72l1.73-4.3a17.78,17.78,0,0,0,3.7,1.5,16,16,0,0,0,4.4.58,14,14,0,0,0,3.2-.32,5.27,5.27,0,0,0,2.13-1,4,4,0,0,0,1.22-1.77,8.1,8.1,0,0,0,.38-2.62v-2.59a12.75,12.75,0,0,1-3.41,2.21,10.56,10.56,0,0,1-4.32.88,9.69,9.69,0,0,1-4.49-1,8.48,8.48,0,0,1-3.12-2.74,11.9,11.9,0,0,1-1.8-4.17,23.24,23.24,0,0,1-.58-5.34,21.76,21.76,0,0,1,.58-5,12.73,12.73,0,0,1,1.86-4.3,9.49,9.49,0,0,1,3.3-3,10.8,10.8,0,0,1,8.94-.31,11.84,11.84,0,0,1,3.41,2.21l.39-2.29H297v25.43m-5.31-18.88a12.23,12.23,0,0,0-2.9-1.89,7.84,7.84,0,0,0-3.28-.71,5,5,0,0,0-2.58.66,5.82,5.82,0,0,0-1.9,1.8,8.27,8.27,0,0,0-1.18,2.73,13.92,13.92,0,0,0-.4,3.46,18.29,18.29,0,0,0,.32,3.55,8.71,8.71,0,0,0,1,2.72,4.89,4.89,0,0,0,1.76,1.74,5,5,0,0,0,2.58.62,7.81,7.81,0,0,0,3.38-.79,13.92,13.92,0,0,0,3.2-2.15Z"/></g><g id="SvgjsG2285"><path class="cls-1" d="M199.45,71.62a7.49,7.49,0,0,0-5.34,12.74l-18.78,26.83a7.35,7.35,0,0,0-2.85-.61,7.54,7.54,0,0,0-7.35,6H134.87a7.49,7.49,0,1,0-12.69,6.74l-18.77,26.83a7.44,7.44,0,0,0-2.86-.61,7.51,7.51,0,1,0,5.34,2.25L124.62,125a7.35,7.35,0,0,0,2.9.56,7.49,7.49,0,0,0,7.35-6h30.26a7.49,7.49,0,1,0,12.69-6.74L196.55,86a7.18,7.18,0,0,0,2.9.57,7.5,7.5,0,0,0,0-15Zm0,3A4.5,4.5,0,1,1,195,79.11,4.47,4.47,0,0,1,199.45,74.62Zm-71.93,39a4.5,4.5,0,1,1-4.49,4.5A4.47,4.47,0,0,1,127.52,113.58Zm45,0a4.5,4.5,0,1,1-4.5,4.5A4.47,4.47,0,0,1,172.48,113.58Zm-71.93,39a4.5,4.5,0,1,1-4.5,4.5A4.47,4.47,0,0,1,100.55,152.54Z"/></g></svg>